<svg xmlns="http://www.w3.org/2000/svg" width="145.574" height="182.183" viewBox="0 0 145.574 182.183">
  <g id="グループ_7308" data-name="グループ 7308" transform="translate(-33.185 -33.503)">
    <g id="グループ_6611" data-name="グループ 6611" transform="translate(33.184 33.503)">
      <rect id="長方形_23622" data-name="長方形 23622" width="17.223" height="9.378" transform="translate(0.169 58.035)" fill="#fac000"/>
      <path id="パス_4979" data-name="パス 4979" d="M1558.2,188.676l19.637,10.662v73.688L1558.2,283.687V188.676m-9.483-15.938V299.625l38.6-20.958V193.7l-38.6-20.958Z" transform="translate(-1532.16 -172.738)" fill="#00374c"/>
      <rect id="長方形_23623" data-name="長方形 23623" width="59.859" height="9.378" transform="translate(36.615 58.067)" fill="#fac000"/>
      <path id="パス_4980" data-name="パス 4980" d="M1688,188.676l19.636,10.662v73.688L1688,283.687V188.676m-9.482-15.938V299.625l38.6-20.958V193.7l-38.6-20.958Z" transform="translate(-1588.011 -172.738)" fill="#00374c"/>
      <rect id="長方形_23624" data-name="長方形 23624" width="33.746" height="9.378" transform="translate(111.827 58.035)" fill="#fac000"/>
      <g id="グループ_6609" data-name="グループ 6609" transform="translate(0 176.852)">
        <path id="パス_4981" data-name="パス 4981" d="M1520.432,479.411h1.118V481.3h2.17v-1.892h1.118v5.072h-1.118v-2.193h-2.17v2.193h-1.118Z" transform="translate(-1520.432 -479.282)" fill="#00374c"/>
        <path id="パス_4982" data-name="パス 4982" d="M1538.442,481.856a2.856,2.856,0,0,1,.2-1.1,2.431,2.431,0,0,1,.568-.842,2.528,2.528,0,0,1,.867-.534,3.323,3.323,0,0,1,2.193,0,2.534,2.534,0,0,1,.867.534,2.43,2.43,0,0,1,.569.842,3.085,3.085,0,0,1,0,2.207,2.423,2.423,0,0,1-.569.842,2.52,2.52,0,0,1-.867.533,3.311,3.311,0,0,1-2.193,0,2.514,2.514,0,0,1-.867-.533,2.424,2.424,0,0,1-.568-.842A2.855,2.855,0,0,1,1538.442,481.856Zm1.161,0a1.849,1.849,0,0,0,.111.656,1.5,1.5,0,0,0,.319.516,1.44,1.44,0,0,0,.5.34,1.786,1.786,0,0,0,1.3,0,1.44,1.44,0,0,0,.5-.34,1.5,1.5,0,0,0,.319-.516,1.976,1.976,0,0,0,0-1.308,1.5,1.5,0,0,0-.319-.519,1.451,1.451,0,0,0-.5-.34,1.788,1.788,0,0,0-1.3,0,1.451,1.451,0,0,0-.5.34,1.492,1.492,0,0,0-.319.519A1.859,1.859,0,0,0,1539.6,481.856Z" transform="translate(-1527.898 -479.19)" fill="#00374c"/>
        <path id="パス_4983" data-name="パス 4983" d="M1558.275,479.411h1.963a3.491,3.491,0,0,1,.734.075,1.759,1.759,0,0,1,.609.251,1.26,1.26,0,0,1,.416.473,1.6,1.6,0,0,1,.154.742,1.485,1.485,0,0,1-.279.913,1.255,1.255,0,0,1-.816.477l1.289,2.142h-1.34l-1.061-2.027h-.552v2.027h-1.118Zm1.118,2.1h.66q.151,0,.318-.011a.993.993,0,0,0,.3-.064.533.533,0,0,0,.226-.169.518.518,0,0,0,.089-.322.541.541,0,0,0-.078-.308.521.521,0,0,0-.2-.176.867.867,0,0,0-.28-.083,2.208,2.208,0,0,0-.307-.022h-.731Z" transform="translate(-1536.12 -479.282)" fill="#00374c"/>
        <path id="パス_4984" data-name="パス 4984" d="M1575.71,479.411h1.118v5.072h-1.118Z" transform="translate(-1543.812 -479.282)" fill="#00374c"/>
        <path id="パス_4985" data-name="パス 4985" d="M1592.381,482.527a2.433,2.433,0,0,1-.137.831,1.816,1.816,0,0,1-.4.659,1.854,1.854,0,0,1-.67.437,2.8,2.8,0,0,1-1.855,0,1.847,1.847,0,0,1-.67-.437,1.827,1.827,0,0,1-.4-.659,2.451,2.451,0,0,1-.136-.831v-3.116h1.118v3.074a1.242,1.242,0,0,0,.076.437,1.047,1.047,0,0,0,.211.347.948.948,0,0,0,.326.229,1.012,1.012,0,0,0,.411.083.987.987,0,0,0,.409-.083.953.953,0,0,0,.321-.229,1.033,1.033,0,0,0,.212-.347,1.247,1.247,0,0,0,.075-.437v-3.074h1.118Z" transform="translate(-1549.067 -479.282)" fill="#00374c"/>
        <path id="パス_4986" data-name="パス 4986" d="M1609.483,480.638a1.094,1.094,0,0,0-.4-.308,1.351,1.351,0,0,0-.555-.107,1.4,1.4,0,0,0-.584.122,1.413,1.413,0,0,0-.467.34,1.6,1.6,0,0,0-.307.519,1.972,1.972,0,0,0,0,1.308,1.638,1.638,0,0,0,.3.516,1.375,1.375,0,0,0,.456.34,1.311,1.311,0,0,0,.562.122,1.261,1.261,0,0,0,.609-.143,1.209,1.209,0,0,0,.437-.4l.931.695a1.941,1.941,0,0,1-.816.667,2.536,2.536,0,0,1-1.018.215,3.113,3.113,0,0,1-1.1-.187,2.518,2.518,0,0,1-.868-.533,2.414,2.414,0,0,1-.569-.842,3.08,3.08,0,0,1,0-2.207,2.421,2.421,0,0,1,.569-.842,2.533,2.533,0,0,1,.868-.534,3.141,3.141,0,0,1,1.1-.186,2.686,2.686,0,0,1,.448.04,2.444,2.444,0,0,1,.459.125,2.052,2.052,0,0,1,.433.229,1.736,1.736,0,0,1,.373.351Z" transform="translate(-1556.596 -479.19)" fill="#00374c"/>
        <path id="パス_4987" data-name="パス 4987" d="M1624.185,479.411h1.118V481.3h2.171v-1.892h1.118v5.072h-1.118v-2.193H1625.3v2.193h-1.118Z" transform="translate(-1564.335 -479.282)" fill="#00374c"/>
        <path id="パス_4988" data-name="パス 4988" d="M1642.2,479.411h1.118v5.072H1642.2Z" transform="translate(-1571.933 -479.282)" fill="#00374c"/>
        <path id="パス_4989" data-name="パス 4989" d="M1673.174,479.411h1.118v2.106l1.97-2.106h1.461l-2.257,2.357,2.451,2.715h-1.562l-2.063-2.407v2.407h-1.118Z" transform="translate(-1585.068 -479.282)" fill="#00374c"/>
        <path id="パス_4990" data-name="パス 4990" d="M1691.759,479.411h3.446v1.032h-2.328v.945h2.2v1.032h-2.2v1.032h2.458v1.032h-3.575Z" transform="translate(-1592.92 -479.282)" fill="#00374c"/>
        <path id="パス_4991" data-name="パス 4991" d="M1708.35,479.411h1.519l2.157,3.525h.014v-3.525h1.117v5.072h-1.46l-2.215-3.611h-.015v3.611h-1.118Z" transform="translate(-1599.954 -479.282)" fill="#00374c"/>
        <path id="パス_4992" data-name="パス 4992" d="M1727.047,483.452l2.571-3.053h-2.479v-.988h3.833v.988l-2.522,3.053h2.608v1.032h-4.012Z" transform="translate(-1608.13 -479.282)" fill="#00374c"/>
        <path id="パス_4993" data-name="パス 4993" d="M1746.576,479.411h.923l2.207,5.072h-1.261l-.436-1.074h-1.97l-.424,1.074h-1.232Zm.43,1.476-.616,1.576h1.239Z" transform="translate(-1615.316 -479.282)" fill="#00374c"/>
        <path id="パス_4994" data-name="パス 4994" d="M1763.96,479.411h1.118v5.072h-1.118Z" transform="translate(-1623.432 -479.282)" fill="#00374c"/>
      </g>
      <g id="グループ_6610" data-name="グループ 6610" transform="translate(0.002 142.364)">
        <path id="パス_4995" data-name="パス 4995" d="M1614.162,425.725h-9.2V420.28h-2.676v5.445h-10.849v21.247h2.676V428.4h8.046a17.034,17.034,0,0,1-5.855,9.8l3.18,1.724a20.963,20.963,0,0,0,4.171-6.428,20.975,20.975,0,0,0,4.171,6.428L1611,438.2a17.038,17.038,0,0,1-5.854-9.8h8.446V444.3h-4l1.446,2.676h3.354a1.88,1.88,0,0,0,1.88-1.88h0V425.725Z" transform="translate(-1550.562 -420.28)" fill="#00374c"/>
        <path id="パス_4996" data-name="パス 4996" d="M1528.464,436.687l-2.677,1.458V429.61h2.677v-2.676h-2.677v-6.572h-2.676v6.572h-2.676v2.676h2.676V439.6l-2.676,1.458v2.931l8.029-4.374Z" transform="translate(-1520.435 -420.314)" fill="#00374c"/>
        <path id="パス_4997" data-name="パス 4997" d="M1761.251,426.065h-3.421v-5.7h-2.677v5.7h-6.561v2.676h6.254a32.039,32.039,0,0,1-8.37,10.143l3.135,1.724a39.306,39.306,0,0,0,5.543-6.231v9.952h-4l1.445,2.676h3.354a1.882,1.882,0,0,0,1.882-1.88h0V428.741h3.421Z" transform="translate(-1616.185 -420.314)" fill="#00374c"/>
        <path id="パス_4998" data-name="パス 4998" d="M1558.481,446.428l-2.676-.046v4.72h-3.414v-6.544h5.136v-6.634l-2.676-.046v4h-2.46v-5.238l-2.676-.046v5.284h-2.377v-3.958l-2.676-.046v6.68h5.053V451.1h-3.124v-4.673l-2.676-.046v7.4h14.567V451.1h0Z" transform="translate(-1530.169 -427.044)" fill="#00374c"/>
        <path id="パス_4999" data-name="パス 4999" d="M1627.637,460.617h.965v-.965A.965.965,0,0,1,1627.637,460.617Z" transform="translate(-1565.754 -436.602)" fill="#00374c"/>
        <path id="パス_5000" data-name="パス 5000" d="M1759.648,460.617h.966v-.965A.966.966,0,0,1,1759.648,460.617Z" transform="translate(-1621.646 -436.602)" fill="#00374c"/>
        <path id="パス_5001" data-name="パス 5001" d="M1736.941,435.219a17.465,17.465,0,0,1-4.833-6.478h3.413v-2.676h-4.355v-5.7h-2.676v5.7h-5.628v2.676H1728a17.176,17.176,0,0,1-5.7,9.068l3.18,1.724a21.665,21.665,0,0,0,3.009-4.043v11.515h2.676V433.59a21.768,21.768,0,0,0,2.594,3.353Z" transform="translate(-1606.164 -420.314)" fill="#00374c"/>
        <path id="パス_5002" data-name="パス 5002" d="M1538.071,429.337v-.9h14.889v-8.073H1535.4v8.975h0a40.8,40.8,0,0,1-.553,7.769,16.476,16.476,0,0,1-3.927,8.186l2.614,1.4a24.986,24.986,0,0,0,2.865-4.62c1.884-3.735,1.677-12.735,1.677-12.735Zm12.213-6.3v2.72h-12.213v-2.72Z" transform="translate(-1524.78 -420.314)" fill="#00374c"/>
        <path id="パス_5003" data-name="パス 5003" d="M1675.764,441.044h5.791v-2.677h-5.791v-1.425h7.087v-2.676h-7.087v-1.425h5.791v-4.1h1.3v-2.676h-1.3v-4.1h-5.791v-1.6h-2.677v1.6h-5.464v2.677h5.464v1.425h-6.76v2.676h6.76v1.425h-5.464v2.676h5.464v1.425h-6.76v2.676h6.76v1.425h-5.464v2.677h5.464V443.7h-.335a24.208,24.208,0,0,1-8.282-1.044,11.63,11.63,0,0,1-1.752-.793,26.074,26.074,0,0,0,2.013-9.218h0V429.97h-4.6l2.529-5.33,1.27-2.677H1655.9v2.677h3.8l-2.53,5.33-1.267,2.671v.005h6.183a23.952,23.952,0,0,1-1.23,5.868c-.146.463-.322.91-.509,1.348a12.228,12.228,0,0,1-1.927-3.6l-2.518,1.365a16.069,16.069,0,0,0,3.109,4.766,23.486,23.486,0,0,1-2.319,3.071l2.954,1.6a20.567,20.567,0,0,0,1.793-2.625,6.751,6.751,0,0,0,.616.361,11.736,11.736,0,0,0,2.416,1.091,29.261,29.261,0,0,0,8.686,1.168h9.428l2.083-3.858c-2.575.314-6.306.428-8.9.47Zm0-16.4h3.115v1.425h-3.115Zm0,4.1h3.115v1.425h-3.115Z" transform="translate(-1577.963 -420.314)" fill="#00374c"/>
      </g>
    </g>
  </g>
</svg>
